<svg xmlns="http://www.w3.org/2000/svg" xmlns:xlink="http://www.w3.org/1999/xlink" width="200" height="NaN" viewBox="0 0 196 150" version="1.1">
<g id="surface1">
<path style=" stroke:none;fill-rule:nonzero;fill:rgb(24.705882%,23.921569%,33.72549%);fill-opacity:1;" d="M 0 135.921875 C 0 136.085938 0.132812 136.21875 0.296875 136.21875 L 195.621094 136.21875 C 195.785156 136.21875 195.917969 136.085938 195.917969 135.921875 C 195.917969 135.757812 195.785156 135.625 195.621094 135.625 L 0.296875 135.625 C 0.132812 135.625 0 135.757812 0 135.921875 Z M 0 135.921875 "/>
<path style=" stroke:none;fill-rule:nonzero;fill:rgb(62.745098%,38.039216%,41.568627%);fill-opacity:1;" d="M 107.332031 51.886719 L 109.347656 39.230469 L 95.742188 33.664062 L 93.726562 52.898438 Z M 107.332031 51.886719 "/>
<path style=" stroke:none;fill-rule:nonzero;fill:rgb(62.745098%,38.039216%,41.568627%);fill-opacity:1;" d="M 117.765625 29.359375 C 117.765625 37.058594 111.554688 43.300781 103.890625 43.300781 C 96.230469 43.300781 90.019531 37.058594 90.019531 29.359375 C 90.019531 21.664062 96.230469 15.421875 103.890625 15.421875 C 111.554688 15.421875 117.765625 21.664062 117.765625 29.359375 Z M 117.765625 29.359375 "/>
<path style=" stroke:none;fill-rule:nonzero;fill:rgb(18.431373%,18.039216%,25.490196%);fill-opacity:1;" d="M 102.785156 10.621094 C 103.1875 10.855469 103.726562 10.503906 103.855469 10.054688 C 103.984375 9.605469 103.832031 9.128906 103.6875 8.683594 C 103.4375 7.945312 103.1875 7.199219 102.9375 6.460938 C 102.40625 4.878906 101.84375 3.246094 100.695312 2.042969 C 98.957031 0.226562 96.203125 -0.234375 93.71875 0.101562 C 90.53125 0.527344 87.386719 2.265625 85.90625 5.132812 C 84.421875 8 85.050781 12.003906 87.734375 13.792969 C 83.914062 18.1875 82.582031 23.089844 82.792969 28.917969 C 83.003906 34.75 89.328125 40.117188 93.453125 44.222656 C 94.375 43.664062 95.210938 41.035156 94.707031 40.078125 C 94.199219 39.121094 94.925781 38.015625 94.296875 37.136719 C 93.671875 36.257812 93.144531 37.660156 93.78125 36.785156 C 94.183594 36.230469 92.621094 34.960938 93.214844 34.632812 C 96.09375 33.035156 97.046875 29.429688 98.855469 26.671875 C 101.035156 23.347656 104.765625 21.09375 108.714844 20.71875 C 110.886719 20.511719 113.1875 20.886719 114.964844 22.152344 C 116.746094 23.421875 117.902344 25.6875 117.492188 27.84375 C 118.5625 26.75 119.09375 25.152344 118.890625 23.632812 C 118.691406 22.117188 117.761719 20.707031 116.441406 19.9375 C 117.242188 17.277344 116.558594 14.214844 114.699219 12.15625 C 112.839844 10.097656 105.296875 10.449219 102.585938 10.992188 "/>
<path style=" stroke:none;fill-rule:nonzero;fill:rgb(18.431373%,18.039216%,25.490196%);fill-opacity:1;" d="M 102.363281 20.796875 C 98.769531 21.183594 96.175781 24.316406 93.984375 27.203125 C 92.722656 28.867188 91.398438 30.707031 91.429688 32.800781 C 91.460938 34.917969 92.871094 36.730469 93.542969 38.738281 C 94.644531 42.015625 93.570312 45.914062 90.953125 48.164062 C 93.539062 48.65625 96.339844 46.707031 96.785156 44.097656 C 97.304688 41.0625 95.015625 38.132812 95.285156 35.0625 C 95.523438 32.359375 97.644531 30.28125 99.445312 28.257812 C 101.246094 26.234375 102.941406 23.554688 102.109375 20.96875 "/>
<path style=" stroke:none;fill-rule:nonzero;fill:rgb(62.745098%,38.039216%,41.568627%);fill-opacity:1;" d="M 103.054688 148.460938 C 103.054688 148.460938 72.996094 151.453125 70.757812 147.960938 C 68.523438 144.464844 101.261719 140.972656 101.261719 140.972656 Z M 103.054688 148.460938 "/>
<path style=" stroke:none;fill-rule:nonzero;fill:rgb(62.745098%,38.039216%,41.568627%);fill-opacity:1;" d="M 83.886719 92.46875 L 83.265625 95.78125 C 84.957031 98.289062 85.121094 100.9375 84.136719 103.699219 L 118.417969 103.949219 C 118.050781 100.21875 117.644531 96.21875 119.054688 92.554688 Z M 83.886719 92.46875 "/>
<path style=" stroke:none;fill-rule:nonzero;fill:rgb(62.745098%,38.039216%,41.568627%);fill-opacity:1;" d="M 140.039062 117.09375 L 127.605469 107.101562 C 125.953125 105.773438 124.882812 103.800781 124.671875 101.683594 L 122.757812 82.648438 L 134.171875 78.824219 L 136.925781 97.675781 L 143.78125 113.335938 L 140.042969 117.09375 Z M 140.039062 117.09375 "/>
<path style=" stroke:none;fill-rule:nonzero;fill:rgb(42.352941%,38.823529%,100%);fill-opacity:1;" d="M 92.457031 50.664062 L 109.101562 49.914062 L 126.738281 58.355469 L 119.535156 92.84375 L 83.019531 95.589844 L 78.050781 57.402344 Z M 92.457031 50.664062 "/>
<path style=" stroke:none;fill-rule:nonzero;fill:rgb(18.431373%,18.039216%,25.490196%);fill-opacity:1;" d="M 119.054688 100.789062 C 121.558594 104.101562 122.605469 112.074219 123.667969 120.007812 C 123.667969 120.007812 77.464844 119.757812 77.214844 119.757812 C 76.964844 119.757812 84.277344 103.035156 84.277344 103.035156 Z M 119.054688 100.789062 "/>
<path style=" stroke:none;fill-rule:nonzero;fill:rgb(18.431373%,18.039216%,25.490196%);fill-opacity:1;" d="M 120.566406 117.890625 L 123.671875 120.007812 C 123.671875 120.007812 167.640625 117.011719 163.914062 130.988281 C 160.1875 144.964844 148.511719 147.210938 148.511719 147.210938 L 101.3125 149.957031 L 100.816406 142.21875 C 100.816406 142.21875 55.355469 152.453125 51.132812 131.488281 C 46.910156 110.523438 77.21875 119.757812 77.21875 119.757812 Z M 120.566406 117.890625 "/>
<path style=" stroke:none;fill-rule:nonzero;fill:rgb(62.745098%,38.039216%,41.568627%);fill-opacity:1;" d="M 102.011719 134.484375 C 102.011719 134.484375 103.054688 128.992188 110.503906 131.238281 C 117.957031 133.484375 122.179688 136.480469 122.179688 136.480469 L 104.292969 140.972656 Z M 102.011719 134.484375 "/>
<path style=" stroke:none;fill-rule:nonzero;fill:rgb(42.352941%,38.823529%,100%);fill-opacity:1;" d="M 120.652344 57.777344 C 120.652344 57.777344 129.097656 54.78125 132.328125 64.515625 C 135.558594 74.25 134.8125 82.234375 134.8125 82.234375 L 122.390625 86.230469 Z M 120.652344 57.777344 "/>
<path style=" stroke:none;fill-rule:nonzero;fill:rgb(62.745098%,38.039216%,41.568627%);fill-opacity:1;" d="M 62.734375 118.613281 L 60.023438 113.816406 L 65.878906 99.175781 L 68.632812 80.324219 L 80.046875 84.148438 L 78.105469 103.414062 C 77.90625 105.382812 76.910156 107.222656 75.375 108.457031 L 62.734375 118.617188 Z M 62.734375 118.613281 "/>
<path style=" stroke:none;fill-rule:nonzero;fill:rgb(42.352941%,38.823529%,100%);fill-opacity:1;" d="M 82.148438 57.777344 C 82.148438 57.777344 73.703125 54.78125 70.472656 64.515625 C 67.242188 74.25 67.988281 82.234375 67.988281 82.234375 L 80.410156 86.230469 Z M 82.148438 57.777344 "/>
<path style=" stroke:none;fill-rule:nonzero;fill:rgb(62.745098%,38.039216%,41.568627%);fill-opacity:1;" d="M 149.59375 110.4375 C 149.59375 105.546875 146.925781 101.578125 143.632812 101.578125 C 140.339844 101.578125 137.667969 105.546875 137.667969 110.4375 C 137.667969 115.332031 140.339844 119.296875 143.632812 119.296875 C 146.925781 119.296875 149.59375 115.332031 149.59375 110.4375 Z M 149.59375 110.4375 "/>
<path style=" stroke:none;fill-rule:nonzero;fill:rgb(62.745098%,38.039216%,41.568627%);fill-opacity:1;" d="M 65.878906 111.9375 C 65.878906 107.042969 63.207031 103.074219 59.914062 103.074219 C 56.621094 103.074219 53.953125 107.042969 53.953125 111.9375 C 53.953125 116.828125 56.621094 120.796875 59.914062 120.796875 C 63.207031 120.796875 65.878906 116.828125 65.878906 111.9375 Z M 65.878906 111.9375 "/>
<path style=" stroke:none;fill-rule:nonzero;fill:rgb(18.431373%,18.039216%,25.490196%);fill-opacity:1;" d="M 82.683594 126.746094 L 104.292969 132.984375 L 108.519531 140.472656 L 100.441406 142.21875 "/>
</g>
</svg>